<svg xmlns="http://www.w3.org/2000/svg" aria-hidden="true" style="position:absolute;width:0;height:0;overflow:hidden">
  <defs>
    <symbol id="icon-antenna" viewBox="0 0 32 32">
      <path fill="#2e2f42" d="m31 22-9-8 1-5h1a2 2 0 1 0-2-1h-5L9 0H8L7 2l1 1a15 15 0 0 0 2 18v7H4c-2 0-3 1-3 2v1l1 1h24l1-1v-1l-3-2h-6v-3a15 15 0 0 0 10-1h1v1-1l2-1v-1zM23 6a1 1 0 1 1 1 2 1 1 0 0 1-1-2zm-1 4-1 3-1-1 2-2zm-1-1-2 2-1-2h3zm3 20 2 1v1H2v-1l2-1h20zm-7-2v1h-6v-1h6zm-6-1v-4c0-2 1-3 3-3s3 1 3 3v4h-6zm7-2v-2c0-2-2-4-4-4l-3 2C7 16 6 9 8 4l19 19c-3 1-6 2-9 1zm11-1L8 2l1-1 8 8 13 13-1 1z" style="fill:var(--color1, #2e2f42)"/>
      <path fill="#4d5ae5" d="M14 20a2 2 0 1 0 0 3 2 2 0 1 0 0-3zm0 2a1 1 0 0 1 0-1 1 1 0 0 1 0 1z" style="fill:var(--color2, #4d5ae5)"/>
    </symbol>
    <symbol id="icon-astronaut" viewBox="0 0 32 32">
      <path fill="#4d5ae5" d="M32 5V4h-2l-1-2h-1l-1 2h-2a1 1 0 0 0 0 1l1 1v3h1l1-1 2 1a1 1 0 0 0 1-1l-1-2 2-1zm-2 1h-1l1 1h-1a1 1 0 0 0-1 0h-1V6l-1-1h2V4l1 1h1v1zm-4 15h-1v1h1v-1zm0 2h-1v1h1v-1zm1-1h-1v1h1v-1zm-2 0h-1v1h1v-1zm-3 4h-1v1h1v-1zm0 3h-1v1h1v-1zm1-2h-1v2h1v-2zm-2 0h-1v2h1v-2zm-5-3h-1v1h1v-1zm0 2h-1v1h1v-1zm1-1h-1v1h1v-1zm-2 0h-1v1h1v-1zM6 6H5v1h1V6zm0 2H5v1h1V8zm1-1H6v1h1V7zM5 7H4v1h1V7z" style="fill:var(--color2, #4d5ae5)"/>
      <path fill="#2e2f42" d="m25 14-1-1-2 1-1 1-2 1h-1a7 7 0 0 0-3-14 7 7 0 0 0-6 11H6l-3 2-2 1a2 2 0 0 0 1 3h1l1-1 2-1h2l-6 5-1 2a2 2 0 0 0 0 2 2 2 0 0 0 2 0l2-1 1-2 1 1-2 2-1 1a2 2 0 0 0 0 3 2 2 0 0 0 2 0l4-4 1-1 5-6 4 1 3-2 2-1v-3zM2 18a1 1 0 0 1-1-1l2-1v1l-1 1zm4-2-2 1v-2l2-1v2zm15-7-1 3-4-2-1-1 2-5c2 0 4 3 4 5zM9 9a6 6 0 0 1 7-5l-2 4a2 2 0 1 0 0 4l2-1 4 2A6 6 0 0 1 9 9zm6 1a1 1 0 0 1-2 0 1 1 0 0 1 2 0zM2 25a1 1 0 0 1 0-1l1-1v1l-1 1zm4 4H5a1 1 0 0 1 0-1l1-1 1 1-1 1zm3-4-2 2v-1l1-1v-1l-1-2H6l-2 1H3l3-3 4 4-1 1zm7-7v1l-5 5-5-5 3-2a1 1 0 0 0 0-1H7v-2h3a7 7 0 0 0 6 2l3 1v2l-3-1zm4 1v-2l1-1 1 1-2 2zm4-3-1 1-1-2h1s0-1 0 0a1 1 0 0 1 1 1z" style="fill:var(--color1, #2e2f42)"/>
      <path fill="#2e2f42" d="m14 19-3-3-2 3 2 2 3-2zm-3 1-1-1 1-1 1 1-1 1zm6-15v1l2 2h1c0-2-2-3-3-3zm3 4h-1v1h1V9z" style="fill:var(--color1, #2e2f42)"/>
    </symbol>
    <symbol id="icon-clock" viewBox="0 0 32 32">
      <path fill="#2e2f42" d="M31 15a15 15 0 1 0-19 15v-1l4-12a2 2 0 1 0-1-3l-5-6a1 1 0 0 0-1 1l5 5 1 3-4 11a14 14 0 1 1 11 0l-1-2a1 1 0 0 0-1 0l-4 3a1 1 0 0 0 1 1l5 2a1 1 0 0 0 0-1v-2c6-2 9-8 9-14zm-15 0a1 1 0 1 1 0 1 1 1 0 0 1 0-1zm2 15 2-2 1 2h-3z" style="fill:var(--color1, #2e2f42)"/>
      <path fill="#4d5ae5" d="M15 3v1a1 1 0 1 0 2 0V3a1 1 0 0 0-2 0zM4 15a1 1 0 0 0 0 1h1a1 1 0 1 0 0-1H4zm24 1a1 1 0 1 0 0-1h-1a1 1 0 0 0 0 1h1z" style="fill:var(--color2, #4d5ae5)"/>
    </symbol>
    <symbol id="icon-diagram" viewBox="0 0 32 32">
      <path fill="#4d5ae5" d="M15 15h1v5h-1v-5zm4 2h1v3h-1v-3zm-8 2h1v1h-1v-1zm-4-1h2v2H7v-2z" style="fill:var(--color2, #4d5ae5)"/>
      <path fill="#2e2f42" d="M2 28h25l2-1v-2l-2-2V10l3-3a2 2 0 1 0-1-1l-2 2V7l-2-2H4L2 7v16l-2 2v2l2 1zM30 5a1 1 0 1 1 0 1 1 1 0 0 1 0-1zM3 7l1-1h21l1 1v2l-1 1V8H4v13l1 1h19l1-1v-9l1-1v12H3V7zm5 7a2 2 0 1 0 1 3l2 1 1-1 4-4 3 3h1l3-3v8H5V9h18v2l-3 4-4-3h-1l-4 4h-1v-1l-2-1zm1 1a1 1 0 1 1-2 0 1 1 0 0 1 2 0zm3 9h5v1h-5v-1zM1 25l1-1h9v1l1 1h5l1-1v-1h9l1 1v2H1v-2z" style="fill:var(--color1, #2e2f42)"/>
    </symbol>
    <symbol id="icon-facebook" viewBox="0 0 32 32">
      <path d="M32 16A16 16 0 0 1 5 27 16 16 0 0 1 16 0c4 0 8 2 11 5s5 7 5 11z"/>
      <path d="M18 12h1v-2h-1c-2 0-3 1-3 3v1h-2v3h2v5h2v-5h2v-3h-2v-1l1-1z"/>
    </symbol>
    <symbol id="icon-instagram" viewBox="0 0 32 32">
      <path d="M32 16A16 16 0 0 1 5 27 16 16 0 0 1 16 0c4 0 8 2 11 5s5 7 5 11z"/>
      <path d="M22 13v-1l-1-1-1-1h-1a43 43 0 0 0-7 0l-1 1-1 1v1a44 44 0 0 0 0 7l1 1 1 1h1a47 47 0 0 0 7 0l2-2v-7zm-1 6v1l-1 1h-1a45 45 0 0 1-7 0l-1-1v-1a45 45 0 0 1 0-7l1-1h1a45 45 0 0 1 7 0h1v8z"/>
      <path d="M16 13a3 3 0 1 0 0 6 3 3 0 0 0 0-6zm0 5a2 2 0 1 1 0-4 2 2 0 0 1 0 4zm4-5a1 1 0 1 1-1 0 1 1 0 0 1 1 0z"/>
    </symbol>
    <symbol id="icon-linkedin" viewBox="0 0 32 32">
      <path d="M32 16A16 16 0 0 1 5 27 16 16 0 0 1 16 0c4 0 8 2 11 5s5 7 5 11z"/>
      <path d="M22 22v-4c0-3 0-4-3-4l-2 1v-1h-3v8h3v-4l1-2c2 0 2 1 2 2v4h2zm-12-8h2v8h-2v-8zm1-4-1 1 1 2 2-2-2-1z"/>
    </symbol>
    <symbol id="icon-twitter" viewBox="0 0 32 32">
      <path d="M32 16A16 16 0 0 1 5 27 16 16 0 0 1 16 0c4 0 8 2 11 5s5 7 5 11z"/>
      <path d="M22 12h-1l1-1-2 1a3 3 0 0 0-4 2l-6-3v2l1 2-1-1c0 2 1 3 2 3a3 3 0 0 1-1 0l2 2a5 5 0 0 1-3 1l4 1a7 7 0 0 0 7-8l1-1z"/>
    </symbol>

  </defs>
</svg>
